<mxfile host="app.diagrams.net" agent="Mozilla/5.0 (X11; Linux x86_64; rv:130.0) Gecko/20100101 Firefox/130.0" version="24.7.10">
  <diagram name="Página-1" id="YcYU_DBs40xzhoCeW3tl">
    <mxGraphModel dx="1195" dy="623" grid="1" gridSize="10" guides="1" tooltips="1" connect="1" arrows="1" fold="1" page="1" pageScale="1" pageWidth="827" pageHeight="1169" math="0" shadow="0">
      <root>
        <mxCell id="0" />
        <mxCell id="1" parent="0" />
        <mxCell id="MGgXmPBcAFUH-L1dWeP6-47" value="" style="rounded=1;whiteSpace=wrap;html=1;fillColor=#f5f5f5;fontColor=#333333;strokeColor=#666666;opacity=70;" vertex="1" parent="1">
          <mxGeometry x="230" y="150" width="830" height="160" as="geometry" />
        </mxCell>
        <mxCell id="MGgXmPBcAFUH-L1dWeP6-7" value="" style="edgeStyle=orthogonalEdgeStyle;rounded=0;orthogonalLoop=1;jettySize=auto;html=1;" edge="1" parent="1" source="MGgXmPBcAFUH-L1dWeP6-1" target="MGgXmPBcAFUH-L1dWeP6-2">
          <mxGeometry relative="1" as="geometry" />
        </mxCell>
        <mxCell id="MGgXmPBcAFUH-L1dWeP6-29" value="" style="edgeStyle=orthogonalEdgeStyle;rounded=0;orthogonalLoop=1;jettySize=auto;html=1;" edge="1" parent="1" source="MGgXmPBcAFUH-L1dWeP6-1" target="MGgXmPBcAFUH-L1dWeP6-11">
          <mxGeometry relative="1" as="geometry" />
        </mxCell>
        <mxCell id="MGgXmPBcAFUH-L1dWeP6-1" value="&lt;font style=&quot;font-size: 15px;&quot;&gt;DEFINICIÓ&amp;nbsp; DE LA FORMACIÓ&lt;/font&gt;" style="rounded=1;whiteSpace=wrap;html=1;fillColor=#fff2cc;strokeColor=#d6b656;" vertex="1" parent="1">
          <mxGeometry x="50" y="180" width="160" height="110" as="geometry" />
        </mxCell>
        <mxCell id="MGgXmPBcAFUH-L1dWeP6-8" value="" style="edgeStyle=orthogonalEdgeStyle;rounded=0;orthogonalLoop=1;jettySize=auto;html=1;" edge="1" parent="1" source="MGgXmPBcAFUH-L1dWeP6-2" target="MGgXmPBcAFUH-L1dWeP6-3">
          <mxGeometry relative="1" as="geometry" />
        </mxCell>
        <mxCell id="MGgXmPBcAFUH-L1dWeP6-32" value="" style="edgeStyle=orthogonalEdgeStyle;rounded=0;orthogonalLoop=1;jettySize=auto;html=1;" edge="1" parent="1" source="MGgXmPBcAFUH-L1dWeP6-2" target="MGgXmPBcAFUH-L1dWeP6-14">
          <mxGeometry relative="1" as="geometry" />
        </mxCell>
        <mxCell id="MGgXmPBcAFUH-L1dWeP6-2" value="&lt;font style=&quot;font-size: 14px;&quot;&gt;DONAR D&#39;ALTA EN GESFORM&lt;/font&gt;" style="rounded=1;whiteSpace=wrap;html=1;fillColor=#fff2cc;strokeColor=#d6b656;" vertex="1" parent="1">
          <mxGeometry x="250" y="180" width="160" height="110" as="geometry" />
        </mxCell>
        <mxCell id="MGgXmPBcAFUH-L1dWeP6-9" value="" style="edgeStyle=orthogonalEdgeStyle;rounded=0;orthogonalLoop=1;jettySize=auto;html=1;" edge="1" parent="1" source="MGgXmPBcAFUH-L1dWeP6-3" target="MGgXmPBcAFUH-L1dWeP6-4">
          <mxGeometry relative="1" as="geometry" />
        </mxCell>
        <mxCell id="MGgXmPBcAFUH-L1dWeP6-36" value="" style="edgeStyle=orthogonalEdgeStyle;rounded=0;orthogonalLoop=1;jettySize=auto;html=1;" edge="1" parent="1" source="MGgXmPBcAFUH-L1dWeP6-3" target="MGgXmPBcAFUH-L1dWeP6-17">
          <mxGeometry relative="1" as="geometry" />
        </mxCell>
        <mxCell id="MGgXmPBcAFUH-L1dWeP6-3" value="&lt;font style=&quot;font-size: 14px;&quot;&gt;INSCRIPCIÓ CURS&lt;/font&gt;" style="rounded=1;whiteSpace=wrap;html=1;fillColor=#fff2cc;strokeColor=#d6b656;" vertex="1" parent="1">
          <mxGeometry x="460" y="180" width="160" height="110" as="geometry" />
        </mxCell>
        <mxCell id="MGgXmPBcAFUH-L1dWeP6-10" value="" style="edgeStyle=orthogonalEdgeStyle;rounded=0;orthogonalLoop=1;jettySize=auto;html=1;" edge="1" parent="1" source="MGgXmPBcAFUH-L1dWeP6-4" target="MGgXmPBcAFUH-L1dWeP6-5">
          <mxGeometry relative="1" as="geometry" />
        </mxCell>
        <mxCell id="MGgXmPBcAFUH-L1dWeP6-37" value="" style="edgeStyle=orthogonalEdgeStyle;rounded=0;orthogonalLoop=1;jettySize=auto;html=1;" edge="1" parent="1" source="MGgXmPBcAFUH-L1dWeP6-4" target="MGgXmPBcAFUH-L1dWeP6-20">
          <mxGeometry relative="1" as="geometry" />
        </mxCell>
        <mxCell id="MGgXmPBcAFUH-L1dWeP6-4" value="&lt;font style=&quot;font-size: 14px;&quot;&gt;DESENVOLUPAMENT DEL CURS&lt;/font&gt;" style="rounded=1;whiteSpace=wrap;html=1;fillColor=#fff2cc;strokeColor=#d6b656;" vertex="1" parent="1">
          <mxGeometry x="667" y="180" width="160" height="110" as="geometry" />
        </mxCell>
        <mxCell id="MGgXmPBcAFUH-L1dWeP6-40" value="" style="edgeStyle=orthogonalEdgeStyle;rounded=0;orthogonalLoop=1;jettySize=auto;html=1;" edge="1" parent="1" source="MGgXmPBcAFUH-L1dWeP6-5" target="MGgXmPBcAFUH-L1dWeP6-23">
          <mxGeometry relative="1" as="geometry" />
        </mxCell>
        <mxCell id="MGgXmPBcAFUH-L1dWeP6-5" value="&lt;font style=&quot;font-size: 14px;&quot;&gt;TANCAMENT DEL CURS&lt;/font&gt;" style="rounded=1;whiteSpace=wrap;html=1;fillColor=#fff2cc;strokeColor=#d6b656;" vertex="1" parent="1">
          <mxGeometry x="880" y="180" width="160" height="110" as="geometry" />
        </mxCell>
        <mxCell id="MGgXmPBcAFUH-L1dWeP6-30" value="" style="edgeStyle=orthogonalEdgeStyle;rounded=0;orthogonalLoop=1;jettySize=auto;html=1;" edge="1" parent="1" source="MGgXmPBcAFUH-L1dWeP6-11" target="MGgXmPBcAFUH-L1dWeP6-12">
          <mxGeometry relative="1" as="geometry" />
        </mxCell>
        <mxCell id="MGgXmPBcAFUH-L1dWeP6-43" value="" style="edgeStyle=orthogonalEdgeStyle;rounded=0;orthogonalLoop=1;jettySize=auto;html=1;" edge="1" parent="1" source="MGgXmPBcAFUH-L1dWeP6-11" target="MGgXmPBcAFUH-L1dWeP6-14">
          <mxGeometry relative="1" as="geometry" />
        </mxCell>
        <mxCell id="MGgXmPBcAFUH-L1dWeP6-11" value="OBJECTIUS" style="rounded=1;whiteSpace=wrap;html=1;" vertex="1" parent="1">
          <mxGeometry x="70" y="340" width="120" height="60" as="geometry" />
        </mxCell>
        <mxCell id="MGgXmPBcAFUH-L1dWeP6-31" value="" style="edgeStyle=orthogonalEdgeStyle;rounded=0;orthogonalLoop=1;jettySize=auto;html=1;" edge="1" parent="1" source="MGgXmPBcAFUH-L1dWeP6-12" target="MGgXmPBcAFUH-L1dWeP6-13">
          <mxGeometry relative="1" as="geometry" />
        </mxCell>
        <mxCell id="MGgXmPBcAFUH-L1dWeP6-44" style="edgeStyle=orthogonalEdgeStyle;rounded=0;orthogonalLoop=1;jettySize=auto;html=1;" edge="1" parent="1" source="MGgXmPBcAFUH-L1dWeP6-12">
          <mxGeometry relative="1" as="geometry">
            <mxPoint x="270" y="370" as="targetPoint" />
            <Array as="points">
              <mxPoint x="230" y="460" />
              <mxPoint x="230" y="370" />
            </Array>
          </mxGeometry>
        </mxCell>
        <mxCell id="MGgXmPBcAFUH-L1dWeP6-12" value="CONTINGUTS" style="rounded=1;whiteSpace=wrap;html=1;" vertex="1" parent="1">
          <mxGeometry x="70" y="430" width="120" height="60" as="geometry" />
        </mxCell>
        <mxCell id="MGgXmPBcAFUH-L1dWeP6-46" style="edgeStyle=orthogonalEdgeStyle;rounded=0;orthogonalLoop=1;jettySize=auto;html=1;exitX=1;exitY=0.5;exitDx=0;exitDy=0;entryX=0;entryY=0.5;entryDx=0;entryDy=0;" edge="1" parent="1" source="MGgXmPBcAFUH-L1dWeP6-13" target="MGgXmPBcAFUH-L1dWeP6-14">
          <mxGeometry relative="1" as="geometry">
            <mxPoint x="230" y="370" as="targetPoint" />
          </mxGeometry>
        </mxCell>
        <mxCell id="MGgXmPBcAFUH-L1dWeP6-13" value="CONDICIONS" style="rounded=1;whiteSpace=wrap;html=1;" vertex="1" parent="1">
          <mxGeometry x="70" y="524.5" width="120" height="60" as="geometry" />
        </mxCell>
        <mxCell id="MGgXmPBcAFUH-L1dWeP6-33" value="" style="edgeStyle=orthogonalEdgeStyle;rounded=0;orthogonalLoop=1;jettySize=auto;html=1;" edge="1" parent="1" source="MGgXmPBcAFUH-L1dWeP6-14" target="MGgXmPBcAFUH-L1dWeP6-15">
          <mxGeometry relative="1" as="geometry" />
        </mxCell>
        <mxCell id="MGgXmPBcAFUH-L1dWeP6-14" value="FITXA DEL CURS" style="rounded=1;whiteSpace=wrap;html=1;" vertex="1" parent="1">
          <mxGeometry x="270" y="340" width="120" height="60" as="geometry" />
        </mxCell>
        <mxCell id="MGgXmPBcAFUH-L1dWeP6-34" value="" style="edgeStyle=orthogonalEdgeStyle;rounded=0;orthogonalLoop=1;jettySize=auto;html=1;" edge="1" parent="1" source="MGgXmPBcAFUH-L1dWeP6-15" target="MGgXmPBcAFUH-L1dWeP6-16">
          <mxGeometry relative="1" as="geometry" />
        </mxCell>
        <mxCell id="MGgXmPBcAFUH-L1dWeP6-15" value="PRESSUPOST" style="rounded=1;whiteSpace=wrap;html=1;" vertex="1" parent="1">
          <mxGeometry x="270" y="430" width="120" height="60" as="geometry" />
        </mxCell>
        <mxCell id="MGgXmPBcAFUH-L1dWeP6-35" value="" style="edgeStyle=orthogonalEdgeStyle;rounded=0;orthogonalLoop=1;jettySize=auto;html=1;" edge="1" parent="1" source="MGgXmPBcAFUH-L1dWeP6-16" target="MGgXmPBcAFUH-L1dWeP6-26">
          <mxGeometry relative="1" as="geometry" />
        </mxCell>
        <mxCell id="MGgXmPBcAFUH-L1dWeP6-16" value="PONENTS" style="rounded=1;whiteSpace=wrap;html=1;" vertex="1" parent="1">
          <mxGeometry x="270" y="524.5" width="120" height="60" as="geometry" />
        </mxCell>
        <mxCell id="MGgXmPBcAFUH-L1dWeP6-17" value="TERMINI" style="rounded=1;whiteSpace=wrap;html=1;" vertex="1" parent="1">
          <mxGeometry x="480" y="340" width="120" height="60" as="geometry" />
        </mxCell>
        <mxCell id="MGgXmPBcAFUH-L1dWeP6-38" value="" style="edgeStyle=orthogonalEdgeStyle;rounded=0;orthogonalLoop=1;jettySize=auto;html=1;" edge="1" parent="1" source="MGgXmPBcAFUH-L1dWeP6-20" target="MGgXmPBcAFUH-L1dWeP6-21">
          <mxGeometry relative="1" as="geometry" />
        </mxCell>
        <mxCell id="MGgXmPBcAFUH-L1dWeP6-20" value="ALTES/BAIXES" style="rounded=1;whiteSpace=wrap;html=1;" vertex="1" parent="1">
          <mxGeometry x="687" y="337.75" width="120" height="60" as="geometry" />
        </mxCell>
        <mxCell id="MGgXmPBcAFUH-L1dWeP6-39" value="" style="edgeStyle=orthogonalEdgeStyle;rounded=0;orthogonalLoop=1;jettySize=auto;html=1;" edge="1" parent="1" source="MGgXmPBcAFUH-L1dWeP6-21" target="MGgXmPBcAFUH-L1dWeP6-22">
          <mxGeometry relative="1" as="geometry" />
        </mxCell>
        <mxCell id="MGgXmPBcAFUH-L1dWeP6-21" value="GESTIÓ AULES" style="rounded=1;whiteSpace=wrap;html=1;" vertex="1" parent="1">
          <mxGeometry x="687" y="427.75" width="120" height="60" as="geometry" />
        </mxCell>
        <mxCell id="MGgXmPBcAFUH-L1dWeP6-22" value="PONENTS" style="rounded=1;whiteSpace=wrap;html=1;" vertex="1" parent="1">
          <mxGeometry x="687" y="522.25" width="120" height="60" as="geometry" />
        </mxCell>
        <mxCell id="MGgXmPBcAFUH-L1dWeP6-41" value="" style="edgeStyle=orthogonalEdgeStyle;rounded=0;orthogonalLoop=1;jettySize=auto;html=1;" edge="1" parent="1" source="MGgXmPBcAFUH-L1dWeP6-23" target="MGgXmPBcAFUH-L1dWeP6-24">
          <mxGeometry relative="1" as="geometry" />
        </mxCell>
        <mxCell id="MGgXmPBcAFUH-L1dWeP6-23" value="APTES" style="rounded=1;whiteSpace=wrap;html=1;" vertex="1" parent="1">
          <mxGeometry x="900" y="340" width="120" height="60" as="geometry" />
        </mxCell>
        <mxCell id="MGgXmPBcAFUH-L1dWeP6-42" value="" style="edgeStyle=orthogonalEdgeStyle;rounded=0;orthogonalLoop=1;jettySize=auto;html=1;" edge="1" parent="1" source="MGgXmPBcAFUH-L1dWeP6-24" target="MGgXmPBcAFUH-L1dWeP6-25">
          <mxGeometry relative="1" as="geometry" />
        </mxCell>
        <mxCell id="MGgXmPBcAFUH-L1dWeP6-24" value="ACTA FINAL" style="rounded=1;whiteSpace=wrap;html=1;" vertex="1" parent="1">
          <mxGeometry x="900" y="430" width="120" height="60" as="geometry" />
        </mxCell>
        <mxCell id="MGgXmPBcAFUH-L1dWeP6-28" value="" style="edgeStyle=orthogonalEdgeStyle;rounded=0;orthogonalLoop=1;jettySize=auto;html=1;" edge="1" parent="1" source="MGgXmPBcAFUH-L1dWeP6-25" target="MGgXmPBcAFUH-L1dWeP6-27">
          <mxGeometry relative="1" as="geometry" />
        </mxCell>
        <mxCell id="MGgXmPBcAFUH-L1dWeP6-25" value="MINUTA" style="rounded=1;whiteSpace=wrap;html=1;fillColor=#f8cecc;strokeColor=#b85450;" vertex="1" parent="1">
          <mxGeometry x="900" y="524.5" width="120" height="60" as="geometry" />
        </mxCell>
        <mxCell id="MGgXmPBcAFUH-L1dWeP6-26" value="CREACIÓ DE CURS EN AULES" style="rounded=1;whiteSpace=wrap;html=1;" vertex="1" parent="1">
          <mxGeometry x="270" y="610" width="120" height="60" as="geometry" />
        </mxCell>
        <mxCell id="MGgXmPBcAFUH-L1dWeP6-27" value="PAGAMENT" style="rounded=1;whiteSpace=wrap;html=1;fillColor=#f8cecc;strokeColor=#b85450;" vertex="1" parent="1">
          <mxGeometry x="1070" y="525" width="120" height="60" as="geometry" />
        </mxCell>
      </root>
    </mxGraphModel>
  </diagram>
</mxfile>
